<svg id="visual" viewBox="0 0 900 600" width="900" height="600" xmlns="http://www.w3.org/2000/svg" xmlns:xlink="http://www.w3.org/1999/xlink" version="1.1"><rect x="0" y="0" width="900" height="600" fill="#001220"></rect><defs><linearGradient id="grad1_0" x1="33.3%" y1="0%" x2="100%" y2="100%"><stop offset="20%" stop-color="#eb9c37" stop-opacity="1"></stop><stop offset="80%" stop-color="#eb9c37" stop-opacity="1"></stop></linearGradient></defs><defs><linearGradient id="grad1_1" x1="33.3%" y1="0%" x2="100%" y2="100%"><stop offset="20%" stop-color="#eb9c37" stop-opacity="1"></stop><stop offset="80%" stop-color="#bd4f61" stop-opacity="1"></stop></linearGradient></defs><defs><linearGradient id="grad1_2" x1="33.3%" y1="0%" x2="100%" y2="100%"><stop offset="20%" stop-color="#53335d" stop-opacity="1"></stop><stop offset="80%" stop-color="#bd4f61" stop-opacity="1"></stop></linearGradient></defs><defs><linearGradient id="grad1_3" x1="33.3%" y1="0%" x2="100%" y2="100%"><stop offset="20%" stop-color="#53335d" stop-opacity="1"></stop><stop offset="80%" stop-color="#001220" stop-opacity="1"></stop></linearGradient></defs><defs><linearGradient id="grad2_0" x1="0%" y1="0%" x2="66.7%" y2="100%"><stop offset="20%" stop-color="#eb9c37" stop-opacity="1"></stop><stop offset="80%" stop-color="#eb9c37" stop-opacity="1"></stop></linearGradient></defs><defs><linearGradient id="grad2_1" x1="0%" y1="0%" x2="66.7%" y2="100%"><stop offset="20%" stop-color="#bd4f61" stop-opacity="1"></stop><stop offset="80%" stop-color="#eb9c37" stop-opacity="1"></stop></linearGradient></defs><defs><linearGradient id="grad2_2" x1="0%" y1="0%" x2="66.7%" y2="100%"><stop offset="20%" stop-color="#bd4f61" stop-opacity="1"></stop><stop offset="80%" stop-color="#53335d" stop-opacity="1"></stop></linearGradient></defs><defs><linearGradient id="grad2_3" x1="0%" y1="0%" x2="66.7%" y2="100%"><stop offset="20%" stop-color="#001220" stop-opacity="1"></stop><stop offset="80%" stop-color="#53335d" stop-opacity="1"></stop></linearGradient></defs><g transform="translate(900, 0)"><path d="M0 432.7C-45.8 398.8 -91.5 364.9 -143.9 347.4C-196.3 329.8 -255.3 328.7 -301.2 301.2C-347.2 273.8 -380 220.2 -399.7 165.6C-419.5 111 -426.1 55.5 -432.7 0L0 0Z" fill="#212542"></path><path d="M0 324.5C-34.3 299.1 -68.6 273.7 -107.9 260.5C-147.2 247.4 -191.5 246.5 -225.9 225.9C-260.4 205.4 -285 165.1 -299.8 124.2C-314.6 83.2 -319.5 41.6 -324.5 0L0 0Z" fill="#8b3f68"></path><path d="M0 216.3C-22.9 199.4 -45.8 182.5 -71.9 173.7C-98.1 164.9 -127.6 164.3 -150.6 150.6C-173.6 136.9 -190 110.1 -199.9 82.8C-209.7 55.5 -213 27.7 -216.3 0L0 0Z" fill="#e06f4e"></path><path d="M0 108.2C-11.4 99.7 -22.9 91.2 -36 86.8C-49.1 82.5 -63.8 82.2 -75.3 75.3C-86.8 68.5 -95 55 -99.9 41.4C-104.9 27.7 -106.5 13.9 -108.2 0L0 0Z" fill="#eb9c37"></path></g><g transform="translate(0, 600)"><path d="M0 -432.7C42.9 -377.1 85.9 -321.6 119 -287.3C152.2 -253.1 175.5 -240.1 227.7 -227.7C279.8 -215.3 360.8 -203.4 399.7 -165.6C438.7 -127.7 435.7 -63.9 432.7 0L0 0Z" fill="#212542"></path><path d="M0 -324.5C32.2 -282.8 64.4 -241.2 89.3 -215.5C114.1 -189.8 131.7 -180.1 170.8 -170.8C209.9 -161.5 270.6 -152.6 299.8 -124.2C329 -95.8 326.8 -47.9 324.5 0L0 0Z" fill="#8b3f68"></path><path d="M0 -216.3C21.5 -188.6 42.9 -160.8 59.5 -143.7C76.1 -126.5 87.8 -120 113.8 -113.8C139.9 -107.6 180.4 -101.7 199.9 -82.8C219.3 -63.9 217.8 -31.9 216.3 0L0 0Z" fill="#e06f4e"></path><path d="M0 -108.2C10.7 -94.3 21.5 -80.4 29.8 -71.8C38 -63.3 43.9 -60 56.9 -56.9C70 -53.8 90.2 -50.9 99.9 -41.4C109.7 -31.9 108.9 -16 108.2 0L0 0Z" fill="#eb9c37"></path></g></svg>